<svg width="1200" height="320" viewBox="0 0 1200 320" fill="none" xmlns="http://www.w3.org/2000/svg">
  <rect width="1200" height="320" rx="36" fill="#F7FBFF"/>
  <rect x="18" y="18" width="1164" height="284" rx="28" fill="url(#bgGlow)" fill-opacity="0.75"/>

  <g transform="translate(46 44)">
    <rect x="0" y="0" width="228" height="228" rx="42" fill="#0F4C5C"/>
    <circle cx="114" cy="78" r="34" fill="#FFB703"/>
    <path d="M30 161C51 134 77 121 108 121C143 121 174 138 198 170" stroke="#9BE7D8" stroke-width="16" stroke-linecap="round"/>
    <path d="M42 187C68 164 93 153 119 153C146 153 171 164 192 187" stroke="#E0FBFC" stroke-width="10" stroke-linecap="round" opacity="0.95"/>
    <path d="M64 62C88 46 115 38 142 38C164 38 183 43 198 52" stroke="#5FD1C3" stroke-width="8" stroke-linecap="round" opacity="0.9"/>
    <path d="M85 79L118 79" stroke="#0F4C5C" stroke-width="14" stroke-linecap="round"/>
    <g transform="translate(55 101)">
      <rect x="0" y="0" width="118" height="49" rx="24.5" fill="#FFFFFF"/>
      <circle cx="30" cy="55" r="15" fill="#0F4C5C"/>
      <circle cx="88" cy="55" r="15" fill="#0F4C5C"/>
      <path d="M18 24H102" stroke="#0F4C5C" stroke-width="8" stroke-linecap="round"/>
      <path d="M25 10H96" stroke="#5FD1C3" stroke-width="6" stroke-linecap="round"/>
      <path d="M56 0V34" stroke="#0F4C5C" stroke-width="7" stroke-linecap="round"/>
    </g>
  </g>

  <g transform="translate(324 74)">
    <text x="0" y="74" fill="#0B3142" font-family="Georgia, 'Times New Roman', serif" font-size="66" font-weight="700" letter-spacing="1.2">FLORIDA</text>
    <text x="0" y="148" fill="#118AB2" font-family="Arial, Helvetica, sans-serif" font-size="72" font-weight="800" letter-spacing="2.5">MOBILITY</text>
    <text x="0" y="207" fill="#4F6D7A" font-family="Arial, Helvetica, sans-serif" font-size="38" font-weight="700" letter-spacing="10">GROUP</text>
    <path d="M2 227H572" stroke="#5FD1C3" stroke-width="6" stroke-linecap="round"/>
    <text x="0" y="255" fill="#516B78" font-family="Arial, Helvetica, sans-serif" font-size="22" font-weight="600" letter-spacing="1.5">NON-EMERGENCY TRANSPORTATION</text>
  </g>

  <defs>
    <linearGradient id="bgGlow" x1="80" y1="24" x2="1108" y2="292" gradientUnits="userSpaceOnUse">
      <stop stop-color="#FFFFFF"/>
      <stop offset="0.5" stop-color="#F1FBFF"/>
      <stop offset="1" stop-color="#EEF8FA"/>
    </linearGradient>
  </defs>
</svg>