<svg width="1400" height="520" viewBox="0 0 1400 520" fill="none" xmlns="http://www.w3.org/2000/svg">
  <rect width="1400" height="520" fill="#FFFFFF"/>

  <g transform="translate(42 28)">
    <path d="M309 28C249 20 173 13 113 42C40 77 0 147 0 229C0 312 41 382 115 418C165 442 221 448 285 444L302 362C257 367 224 367 193 357C127 337 91 292 91 229C91 168 126 122 192 101C225 91 258 92 310 98L309 28Z" fill="#1FB4CC"/>

    <path d="M118 86H264V151H175V201H257V268H175V379H107V149C107 122 111 102 118 86Z" fill="#1FB4CC"/>

    <path d="M86 260C130 193 186 143 256 111C302 90 358 76 420 74L418 84C360 92 310 110 268 139C211 179 165 231 129 294L86 260Z" fill="#2E316B"/>
    <path d="M74 230C117 176 167 134 225 103C292 67 362 50 441 49L440 61C367 69 302 89 244 124C190 157 143 202 101 257L74 230Z" fill="#FFFFFF"/>
    <path d="M91 222C134 171 182 132 239 103C301 71 367 56 437 56L435 73C369 82 309 102 256 136C206 167 161 208 120 258L91 222Z" fill="#2E316B"/>

    <path d="M177 242C199 214 226 191 257 174C289 156 326 143 368 137L367 155C330 161 299 172 270 190C244 206 220 228 201 255L177 242Z" fill="#FFFFFF"/>
    <path d="M204 227L228 211L240 220L217 236L204 227Z" fill="#2E316B"/>
    <path d="M249 198L274 184L286 193L261 208L249 198Z" fill="#2E316B"/>
    <path d="M296 174L321 163L333 171L307 184L296 174Z" fill="#2E316B"/>

    <path d="M173 248C184 252 194 258 201 266V379H107V324C118 309 128 294 139 281C149 269 160 258 173 248Z" fill="#2E316B"/>
  </g>

  <g transform="translate(462 88)">
    <text x="0" y="138" fill="#1FB4CC" font-family="Georgia, 'Times New Roman', serif" font-size="148" font-weight="700">Florida</text>
    <text x="0" y="272" fill="#1FB4CC" font-family="Georgia, 'Times New Roman', serif" font-size="116" font-weight="700">Mobility</text>
    <text x="12" y="360" fill="#2E316B" font-family="Georgia, 'Times New Roman', serif" font-size="70" font-weight="700" letter-spacing="3">Group</text>
  </g>
</svg>